<svg width="1024" height="1024" viewBox="0 0 1024 1024" fill="none" xmlns="http://www.w3.org/2000/svg">
<rect width="1024" height="1024" fill="#1C1C1C"/>
<path d="M654.667 217.054C660.063 230.81 664.355 244.775 668.543 258.941C670.156 264.367 671.771 269.793 673.386 275.218C673.83 276.713 674.274 278.209 674.732 279.749C678.218 291.465 681.746 303.167 685.286 314.867C688.123 324.241 690.953 333.617 693.783 342.994C695.202 347.69 696.624 352.386 698.048 357.081C700.066 363.733 702.073 370.388 704.078 377.044C704.694 379.065 705.309 381.086 705.944 383.168C706.502 385.028 707.061 386.889 707.636 388.806C708.128 390.432 708.62 392.058 709.127 393.734C710.173 397.963 710.173 397.963 710.173 404.13C579.919 404.13 449.664 404.13 315.463 404.13C319.098 390.801 322.721 377.604 326.906 364.46C327.39 362.929 327.873 361.399 328.371 359.822C329.931 354.889 331.498 349.957 333.066 345.026C334.159 341.579 335.252 338.131 336.345 334.683C339.119 325.943 341.899 317.206 344.683 308.47C346.244 303.572 347.802 298.673 349.359 293.773C351.705 286.398 354.059 279.025 356.421 271.654C357.288 268.947 358.152 266.239 359.014 263.53C361.556 255.55 364.169 247.599 366.857 239.668C367.636 237.27 367.636 237.27 368.43 234.824C369.869 230.858 369.869 230.858 373.025 225.277C382.604 221.575 391.166 224.829 400.609 227.502C452.856 241.196 494.542 242.078 547.27 231.482C563.825 228.192 580.518 225.762 597.206 223.257C602.363 222.472 607.512 221.652 612.662 220.82C615.06 220.439 615.06 220.439 617.506 220.05C620.451 219.582 623.395 219.106 626.337 218.619C635.914 217.124 645.009 216.865 654.667 217.054Z" fill="white"/>
<path d="M511.918 463.106C514.454 463.109 516.99 463.113 519.602 463.117C556.78 463.21 593.222 464.032 629.997 469.916C632.342 470.279 634.687 470.643 637.103 471.018C715.841 483.486 800.747 501.568 870.523 541.868C871.202 543.225 871.88 544.581 872.579 545.979C634.458 545.979 396.337 545.979 151 545.979C198.89 498.089 309.545 484.209 374.309 473.256C376.51 472.88 376.51 472.88 378.755 472.497C423.049 465.038 467.042 462.968 511.918 463.106Z" fill="white"/>
<path d="M440.439 607.796C454.145 619.367 468.264 634.672 471.701 652.879C473.517 652.434 475.332 651.988 477.202 651.53C500.097 646.218 527.684 641.81 549.821 652.879C550.346 651.074 550.87 649.27 551.411 647.41C561.264 620.582 584.438 602.922 609.439 591.205C638.744 579.401 668.503 580.473 697.974 591.511C726.8 604.514 747.523 627.279 759.752 656.268C761.267 660.611 762.565 664.851 763.622 669.325C763.996 670.891 764.37 672.457 764.755 674.071C770.102 706.11 762.423 734.769 745.12 761.835C727.381 786.089 702.416 800.637 673.168 807.062C640.953 810.09 611.551 806.449 585.203 786.272C562.548 766.939 545.919 744.982 541.598 714.552C541.46 709.543 541.423 704.53 541.469 699.519C541.488 696.941 541.507 694.362 541.526 691.706C541.561 688.768 541.561 688.768 541.598 685.771C531.546 683.767 521.985 683.405 511.789 683.459C510.281 683.451 508.773 683.443 507.22 683.434C498.582 683.45 490.488 684.075 481.98 685.771C482.107 688.231 482.235 690.69 482.366 693.224C482.214 725.502 469.428 755.224 447.032 778.281C419.384 802.863 389.061 808.74 353.424 807.422C327.331 805.572 302.221 790.552 284.497 771.721C266.042 749.136 254.054 721.23 255.122 691.521C259.299 658.285 271.981 629.698 297.819 607.491C342.325 574.943 395.886 574.771 440.439 607.796ZM315.462 636.433C314.023 637.789 312.584 639.146 311.102 640.544C295.191 656.893 289.614 674.999 288.544 697.552C289.1 716.944 295.05 732.483 307.239 747.445C308.272 748.733 309.306 750.021 310.371 751.348C323.721 766.261 342.753 775.094 362.56 776.716C385.431 777.254 404.641 772.758 422.298 757.659C440.422 740.094 449.253 721.357 450.116 695.922C449.367 673.259 440.739 652.378 424.346 636.489C392.78 610.267 346.42 606.986 315.462 636.433ZM590.888 643.708C577 661 570.245 682.17 572.435 704.273C576.217 728.046 586.129 745.973 605.247 760.864C625.086 775.099 645.45 778.958 669.586 775.575C691.14 770.884 708.355 758.437 721.093 740.635C733.531 720.504 735.356 699.274 731.966 676.047C727.281 656.911 714.331 639.68 698.126 628.643C661.396 607.865 620.019 612.724 590.888 643.708Z" fill="white"/>
</svg>
